# xmcd
#
# Track frame offsets:
#	150
#	13019
#	25463
#	36596
#	50165
#	65069
#	77622
#	88837
#	101858
#	114849
#	127394
#	138870
#	152254
#	164110
#	176892
#
# Disc length: 2574 seconds
#
# Revision: 0
# Processed by: cddbd v1.5.2PL0 Copyright (c) Steve Scherf et al.
# Submitted via: audiograbber 1.83.01
#
DISCID=da0a0c0f
DTITLE=Various Artist - The Soul Story: Volume 3 - Disc 1
DYEAR=2006
DGENRE=Soul
TTITLE0=Fontella Bass - Rescue Me
TTITLE1=James Brown and the Famous Flames - Please, Please, Please
TTITLE2=The Temptations - (I Know) I'm Losing You
TTITLE3=Marvin Gaye and Tammi Terrell - Your Precious Love
TTITLE4=Al Green - Let's Stay Together
TTITLE5=Etta James - Something's Got A Hold On Me
TTITLE6=Jr. Walker and the All Stars - What Does It Take (To Win Your Love)
TTITLE7=The Miracles - You've Really Got A Hold On Me
TTITLE8=The Isley Brothers - This Old Heart Of Mine (Is Weak For You)
TTITLE9=The Impressions - It's All Right
TTITLE10=Jerry Butler - Only the Strong Survive
TTITLE11=Jimmy Ruffin - What Becomes Of The Brokenhearted
TTITLE12=Little Milton - We're Gonna Make It
TTITLE13=Martha Reeves and the Vandellas - Jimmy Mack
TTITLE14=Eddie Holman - Hey There Lonely Girl
EXTD=
EXTT0=
EXTT1=
EXTT2=
EXTT3=
EXTT4=
EXTT5=
EXTT6=
EXTT7=
EXTT8=
EXTT9=
EXTT10=
EXTT11=
EXTT12=
EXTT13=
EXTT14=
PLAYORDER=
